<svg width="64" height="64" fill="none" xmlns="http://www.w3.org/2000/svg">
  <path d="M57.3 26.8v-1.5a4 4 0 0 0-4-4H40v-6.6c0-.8-.6-1.4-1.3-1.4h-4v-4c0-.7-.6-1.3-1.4-1.3h-18l-2.4-2.3c-.5-.5-1.3-.5-1.8 0l-7.7 7.6h-2c-.8 0-1.4.6-1.4 1.4V52c0 .7.6 1.3 1.3 1.3h5.5c.2 1 .6 2 1.2 2.7H5.3a1.3 1.3 0 0 0 0 2.7h8c3.3 0 6-2.3 6.6-5.4H44c.2 1 .7 2 1.2 2.7h-2.6a1.3 1.3 0 0 0 0 2.7h8c3.2 0 5.9-2.3 6.5-5.4h5.5c.7 0 1.3-.6 1.3-1.3V34.7a8 8 0 0 0-6.7-8zM32 10.7v2.6H20.6l-2.7-2.6H32zM12 8.6l1.7 1.7 3 3H7.3L12 8.6zM13.3 56a4 4 0 1 1 0-8 4 4 0 0 1 0 8zm24-33.3v22.6h-9a1.3 1.3 0 1 0 0 2.7h9v2.7H20a6.7 6.7 0 0 0-13.1 0H2.7V29.3H8a1.3 1.3 0 0 0 0-2.6H2.7V24h16a1.3 1.3 0 0 0 0-2.7h-16V16H37.3v6.7zm6.8 28H40V48h5.3c-.5.8-1 1.7-1.2 2.7zM54.7 52a4 4 0 1 1-4-4 4 4 0 0 1 4 4zm6.6-1.3h-4.1c-.6-3-3.3-5.4-6.5-5.4H40V24h13.3c.8 0 1.4.6 1.4 1.3v1.4h-9.4c-.7 0-1.3.6-1.3 1.3v12c0 .7.6 1.3 1.3 1.3h16v9.4zm-12-21.4v9.4h-2.6v-9.4h2.6zm12 9.4H52v-9.4h4c3 0 5.3 2.4 5.3 5.4v4z" fill="#000"/>
  <path d="M23 48h.9a1.3 1.3 0 0 0 0-2.7H23a1.3 1.3 0 1 0 0 2.7zM23 24h.9a1.3 1.3 0 0 0 0-2.7H23a1.3 1.3 0 1 0 0 2.7z" fill="#000"/>
</svg>
