<svg width="64" height="64" fill="none" xmlns="http://www.w3.org/2000/svg">
  <g clip-path="url(#clip0)" fill="#000">
    <path d="M50 50a4.1 4.1 0 0 0 0 5.9c.9.8 2 1.3 3 1.3s2.2-.5 3-1.3a4.1 4.1 0 0 0 0-6 4.1 4.1 0 0 0-6 0zm4.5 4.5a2 2 0 0 1-3 0 2 2 0 0 1 0-3c.5-.4 1-.6 1.5-.6.6 0 1 .2 1.5.6a2 2 0 0 1 0 3z"/>
    <path d="M63.3 51.2L44 32l7.5-7.6 4.5-4.5 6.5-6.5a4.7 4.7 0 0 0 0-6.6l-5.4-5.4c-.9-.9-2-1.4-3.3-1.4-1.3 0-2.5.5-3.3 1.4L44 7.9l-4.5 4.5-7.6 7.5L13 1a3.3 3.3 0 0 0-4.5 0L1 8.6A3 3 0 0 0 1 13l2.2 2.3 6 6 6 6L20 32 2.8 49.1c-.3.2-.5.5-.5.8L0 62.7c0 .4.1.8.3 1 .2.2.5.3.8.3h.2l12.3-2.3h.3c.3 0 .6 0 .7-.3L32 44.1l1.4 1.3 3 3 14.8 14.9c.5.5 1.2.7 1.8.7.7 0 1.3-.2 1.7-.7l8.6-8.6c1-1 1-2.5 0-3.5zm-49.4 7.9L10 55.4 45.6 20l3.7 3.7L13.9 59zM52 2.9c1-1 2.6-1 3.6 0L61 8.3c1 1 1 2.7 0 3.6l-5.7 5.8-9-9L52 2.8zM44.8 10l4.5 4.6 4.6 4.5-3 3-9-9 3-3zM20.5 29.6l2.3-2.3c.5-.4.5-1 0-1.5a1 1 0 0 0-1.5 0l-2.2 2.3-1.6-1.5 3.7-3.8c.5-.4.5-1 0-1.5a1 1 0 0 0-1.5 0L16 25.1l-1.5-1.5 2.3-2.3c.4-.4.4-1 0-1.5a1 1 0 0 0-1.5 0L13 22.1l-1.5-1.5 3.8-3.7c.4-.5.4-1.1 0-1.5a1 1 0 0 0-1.5 0L10 19l-1.6-1.6 2.3-2.2c.4-.5.4-1.1 0-1.5a1 1 0 0 0-1.5 0L6.9 16l-1.4-1.5 3.7-3.7c.4-.5.4-1 0-1.5a1 1 0 0 0-1.5 0L4 13l-1.5-1.5a1 1 0 0 1 0-1.5L10 2.5c.3-.3.5-.4.8-.4.2 0 .5.1.7.4l19 19-9 9-1-.9zm19.8-14.9l3.8 3.8L8.6 53.8l-3.7-3.7 35.4-35.4zM4.1 52.3l3.5 3.5.2.3 3.9 3.9-9.2 1.5L4 52.3zm57.7 1l-8.6 8.5h-.5l-11-11 3.8-3.9c.4-.4.4-1 0-1.5a1 1 0 0 0-1.5 0l-3.8 3.8-1.6-1.5 2.3-2.3c.4-.4.4-1 0-1.5a1 1 0 0 0-1.5 0L37 46.2l-1.5-1.5 3.8-3.7c.4-.5.4-1.1 0-1.5a1 1 0 0 0-1.5 0L34 43.2l-.6-.6 9-9.1 19.3 19.2v.5z"/>
  </g>
  <defs>
    <clipPath id="clip0">
      <path fill="#fff" d="M0 0h64v64H0z"/>
    </clipPath>
  </defs>
</svg>
