<svg width="64" height="64" fill="none" xmlns="http://www.w3.org/2000/svg">
  <path d="M63 0H1a1 1 0 0 0-1 1v4.3c0 .6.5 1.1 1 1.1h1.1v45.9c0 .6.5 1 1.1 1h1V63c0 .6.5 1.1 1.1 1.1h4.3c.5 0 1-.4 1-.9l2-9.8h38.8l2 9.8c0 .5.5.9 1 .9h4.3c.6 0 1-.5 1-1v-9.7h1.1c.6 0 1-.4 1-1V6.4H63c.6 0 1.1-.5 1.1-1V1c0-.6-.5-1.1-1-1.1zM8.6 61.9H6.4v-8.6h4L8.7 62zm48.9 0h-2.3l-1.7-8.6h4V62zm2.1-10.7H4.3V6.4h55.4v44.8zm2.2-47H2v-2H62v2z" fill="#000"/>
  <path d="M55.5 8.5h-47a1 1 0 0 0-1 1.1v17c0 .7.4 1.1 1 1.1h47c.6 0 1-.4 1-1V9.6c0-.6-.4-1-1-1zm-1.1 17.1H9.6v-15h44.8v15zM55.5 29.9h-47a1 1 0 0 0-1 1V48c0 .6.4 1 1 1h47c.6 0 1-.4 1-1V31c0-.7-.4-1.1-1-1.1zm-1.1 17H9.6V32h44.8v15z" fill="#000"/>
  <path d="M32 12.8a3.2 3.2 0 1 0 0 6.4 3.2 3.2 0 0 0 0-6.4zm0 4.3a1 1 0 1 1 0-2.2 1 1 0 0 1 0 2.2zM32 34.1a3.2 3.2 0 1 0 0 6.4 3.2 3.2 0 0 0 0-6.4zm0 4.3a1 1 0 1 1 0-2.1 1 1 0 0 1 0 2.1z" fill="#000"/>
</svg>
