<svg width="64" height="64" fill="none" xmlns="http://www.w3.org/2000/svg">
  <g clip-path="url(#clip0)" fill="#000">
    <path d="M10.7 50.7H5.3v2.6h5.4v-2.6zM16 56H5.3v2.7H16V56z"/>
    <path d="M54 41.5a5 5 0 0 0-2-1.2v-12l10.8-11a4 4 0 0 0 0-5.5 4 4 0 0 0-5.5 0L52 17.1V6.7h2.7c.7 0 1.3-.6 1.3-1.4C56 2.4 53.6 0 50.7 0H5A5.5 5.5 0 0 0 0 5.6V60a4 4 0 0 0 4 4h44a4 4 0 0 0 4-4v-6.2l4.5 4.5a1.3 1.3 0 0 0 1.8 0l5.3-5.3c.5-.5.5-1.4 0-1.9L54 41.5zm-1.1 2.7l-3.4 3.4-.8-.9a2.4 2.4 0 1 1 3.4-3.3l.8.8zm-18.2-5.3l1 1-2 1.1 1-2.1zm1.5-2.3l20.2-20.1 1.8 1.8L38 38.4l-1.8-1.8zM61 13.7c.5.5.5 1.3 0 1.8l-1 .9-1.7-1.8.9-.9c.5-.5 1.3-.5 1.8 0zm-10.3-11c1 0 1.8.5 2.3 1.3H10.5L10 2.7h40.7zM49.3 60c0 .7-.6 1.3-1.3 1.3H4c-.7 0-1.3-.6-1.3-1.3V5.6c0-1.5 1-2.8 2.5-3h.1C6.9 2.7 8 4 8 5.4c0 .8.6 1.4 1.3 1.4h40v13l-15.9 16-.2.4-3.4 6.6H10.7v-28h8v14.6c0 .8.6 1.4 1.3 1.4h6.7c.7 0 1.3-.6 1.3-1.4v-6.6h6.7v4c0 .7.6 1.3 1.3 1.3h2.7v-2.7h-1.4v-4c0-.7-.6-1.3-1.3-1.3h-9.3c-.8 0-1.4.6-1.4 1.3V28h-4V13.3c0-.7-.6-1.3-1.3-1.3H9.3c-.7 0-1.3.6-1.3 1.3V44c0 .7.6 1.3 1.3 1.3h21.4l.6-.1 7.3-3.7.4-.2 10.3-10.4V40a5 5 0 0 0-2.5 8.5l2.5 2.5V60zm8.1-4.6l-6-6 3.4-3.3 6 6-3.4 3.3z"/>
  </g>
  <defs>
    <clipPath id="clip0">
      <path fill="#fff" d="M0 0h64v64H0z"/>
    </clipPath>
  </defs>
</svg>
