<svg width="64" height="64" fill="none" xmlns="http://www.w3.org/2000/svg">
  <path d="M55.6 13.7L42.3.4c-.3-.3-.6-.4-1-.4h-28C10.3 0 8 2.4 8 5.3v53.4c0 3 2.4 5.3 5.3 5.3h37.4c3 0 5.3-2.4 5.3-5.3v-44c0-.4-.1-.7-.4-1zm-13-9.1l8.8 8.7h-6a2.7 2.7 0 0 1-2.7-2.6V4.6zm10.7 54c0 1.5-1.2 2.7-2.6 2.7H13.3a2.7 2.7 0 0 1-2.6-2.6V5.3c0-1.4 1.2-2.6 2.6-2.6H40v8c0 3 2.4 5.3 5.3 5.3h8v42.7z" fill="#000"/>
  <path d="M46.7 37.3H28a1.3 1.3 0 1 0 0 2.7h18.7a1.3 1.3 0 1 0 0-2.7zM17.3 16h16a1.3 1.3 0 1 0 0-2.7h-16a1.3 1.3 0 1 0 0 2.7zM46.7 29.3H17.3a1.3 1.3 0 1 0 0 2.7h29.4a1.3 1.3 0 1 0 0-2.7zM16 22.7c0 .7.6 1.3 1.3 1.3h29.4a1.3 1.3 0 1 0 0-2.7H17.3c-.7 0-1.3.6-1.3 1.4zM35 48.4c-1.9 2-4.4 4-5.3 4.7-.3-.5-.5-1.4-.7-1.9-.5-1.8-1-3.2-2.3-3.2-1.2 0-1.7 1-2.5 2.7-.4.8-1.2 2.4-1.5 2.6-.3 0-.8-.3-1.3-.8 1.4-2 2.6-4.1 2.6-5.8 0-3-2.5-4-4-4-1.6 0-4 2.3-4 5.3 0 1.3.7 3 1.8 4.5l-1.3 1.1a1.3 1.3 0 0 0 1.6 2.1l1.5-1.2c1 .9 2.1 1.5 3 1.5 1.9 0 3-2 3.9-4 .6 2.1 1.2 4 2.8 4 .5 0 1.8 0 7.6-5.7a1.3 1.3 0 1 0-1.8-2zm-15.4 2c-.5-.9-1-1.7-1-2.4 0-1.6 1.3-2.6 1.4-2.7.2 0 1.3.1 1.3 1.4 0 .8-.7 2.3-1.7 3.7z" fill="#000"/>
</svg>
